/* XPM */
static char *ddps_xpm[] = {
/* width height ncolors chars_per_pixel */
"128 128 11 1",
/* colors */
"  c #000000",
". c #800000",
"X c #00FFFF",
"o c #008080",
"O c #808080",
"+ c #000080",
"@ c #800080",
"# c #008000",
"$ c #808000",
"% c #0000FF",
"& c None",
/* pixels */
".o.o.o.o.o.o.o.o.o.o.o.o.o.o.O O O O O O O O O Oo.o.o.o.o.o.o.o.o.o@#@#@#@#@$o.o.o.o.o.Oo.o.o.o.o.o.o.o.o.O o.o.o.o.o.o.o.o.o.o@",
"o.o.O O.o.o.o.o.o.o.o.o.o.o.o.o.O O O O O O O O O O.o.o.o.o.o.o.o.o.o.o.o.o.o@$o.o.o.o.o.o.o.o.o.o.O O O O O.o$+$+O O O O O O O ",
".o.o.o.o.o.o.o.o.o.o.O O.o.o$+$o.o.o.o.o.o.o.o.o.o.o.o.o@#@O Oo.o.o.o.o.o.o.o.o.o.o.o.o.o.o.o.o.o.o.o@#@#@o.o@#@#O O+$+$+$+$@#@$",
"o.o$+$+$+$o.o.o.o.o.o@#@o.o@#@o.o.o.o.o.o.o.o.o.o.o.o$@#@#@#@#@#@#@#@#@o.o.o.o.o.o.o$+$+$+$@#+$@o.o.o.o.o.o.o.o.o.o.o.o.o.o@#@#+",
".o.o.o.o.o.o.o.o.o.o.o.o.o.o.o.o.o.o.o.o.Oo.o.o.o.o@#@#@#@#@#@#@#@#O.o.o.o.o.o.o.o.o.o.o.o.o.O o.o.o.o.o.o.o.o.o.o.o$+$+$+$ O#@$",
"o.o.o.o.o.o.oO O+$o.o.o.o.o.o.o.o@#@O#@#@#@#@#@#@#@#@#@#O O O O.o.o.o$+$@#O O O O O O O O O O O.o.o.o.O O O O O O O O O#@#O+$+$+",
".o.o@#O+$+$@#@#@#@#@#O O O O O O#@#@#@#@#@#@#@$+$o.o.o.o.o.o.o.o.o@#@#@#@#@#@#@#@#@#@o.#O O O#@#@#@#@#@#@#@#@#@#@#@#@$+$+$+$ O O",
"o.o.o.o.o.o.o.O O O O O O O.o.o.o.o.o.o.o.o.o.o@#@#@#@#@#@#@#@#@#@#@#@#@#@o.o.o.o.o.o.o@#@#@#@#@#O O#@#@#@#@#@#@$+$+$+O O O O+$+",
".o.o.o.o.o.o.o.o.o.o.o.o.o.o.o.O O O O O O O o.o.o.o.o.o.o.o.o.o.o.o.o.o.o.o.o.o@#@#@#@#@o.o@#@#@#@#@#O O$+$+$+$+$+$+$+$+$+O $+$",
"o.o.O O.o.o.o.o.o.O O O O O O O O O O O O O#@#@#+$+$+$+$+$+#@o.o$+$+$+$+$+$+$+$+$+$+$+$+$+$+$+$+$+O O+$+$+$+O O+$+$+$+$@o.o.o@#@",
".o.o.o.o.o.o.o.o.o.o.O O O O O O O O O O O O+OoO+O O O O O@$+$+#@#@#@#@#@#@#@o$+O#@#@#@#@#@#@#@#@$+$+$+$+$+$@#@#@#@#@#@#@#@$+$+$",
"o.o.o.o.o.o.o.o.o.o@#@#@#@#@#@#@#@#@o.o.o@#@oooOo@#@#@o.ooooo@o.o.o.o.o$+$+$+$+oO+O+$+$+$+$+$+$+$+$+$+$+$+$+$+$o.o.o.o.o.o.o.o.o",
".o.o.o.o.o.o.o.o.o.o.oO Oo.o$+.o.#@#.o.o.#@ooO%oooO O $+O+OoOoO+$+$+$+$+$+$+O+OooooO+$+$+$o.o.o.o.o.o.o@#@#@#@#@#@#O O O O O O O",
"o.o.o$+$o.o$+$+$+$+$+$+$@#@o.o$+O+Oo+O+$+oOooooooO+O#+Ooooo%oooO+$+O O+$+$+$oooo%Oo@oO O O O O O O O O.o.o.o.o.o.o.o.o.o.o.o.o.o",
".o.o@#@o.o@#@o$+$+$+$+$+$+$ O O ooO+OooO+O+oOXo%Oo+$+@#@oOoXoO%oO+$+$+$+$+$o@oXoXoXoo@o.o.o.o.o.o.o.o.o.o.o.o.o.o.o.o.o.o.o.o.o.",
"o.o.o.o.o.o.o.o.o$@#+$+$+$+O+$+OoOoXoo@o@oOo%ooXooO+$oOooX%oXooOo+O#@#@#@#+OooO%oo%oOo@o.o.o.o.o.o$+$+$o.o.o.o.O+$+$+$o.O O O O ",
".o.o.O O O O O O O O.o.o.o.#.o@ooo%oOXoooooooX%Ooo@#@#@ooooX%oXooOo+$+$+$+$+oooXoXooXoooO O O#@#@#@#@#@#@#@o.o.o.O O+$+$+O O O O",
"o.o.o.o.O O.o.o.o.o.o.o.o.o@ooOoooXoX%oXOoO%XoXoooO+$+ooo%XooX%oX%oOo@#@#@oOo%oX%oXo%oO%O+O O O O O O O O O O O O O O O O#@#@#@#",
".o.o.o.o.o.o.o.o.o.o.o.o.o.o.oo%oX%oooXo%Xooo%oX%Oo.ooOooXo%XooXoOo%oO+O#@#ooXoXoX%XooXooo@o@#@#@#@o.o.o.O#@#@#@#@#@#@#@#@#O@#@o",
"o.o.o$+$+$+$+$+$+$+$+$+$+$+$+OoXoooX%X%oXoX%XoXooo+Oo.oOo%XoXX%XoooOooO+o@O+Ooo%oXooX%ooOooo.o@#@#@#@#@#@#@#@#O O O.o.o.o.o.o$+$",
".o.o.o.o.o.o.o.o.o.o.o.o.o.oOooO%XooXooXoo%XoXo%XoO+.o+ooXoo%ooo%XoX+Ooo@#ooooXoX%oXooXo%XO%O+$o.o.o.o.o.o.o.o.o.o.o.o.o.o.o.o.o",
"o.o.o.o.o$+$o@#@o.o$+$@#@#@o@oooXoX%oX%oXoXoo%XooOooOoOo%oX%XoXoXo%oXooOo@oOo%oooX%OX%oXoooooO+$+$+$+$+$+O $+$+$+$+$+$o.o.o.o.o.",
".o.o@#@o.o.o.O O.o@#@o$+$o@#oo%Xo%oooooX%ooXoXoXo%oO oooXOXooXo%oXoXoo%ooo.ooXoXooXooXo%XooXO+o.o.o.o.o.o.o@#@#@#O O O+$+$+$+$+$",
"o.o.o.o.o.o.o.o.o.o.o.o.o.#@oOooXoOoOooooX%X%oX%ooO+O+Oooo%oX%ooX%oo%XOo+Oo+oo%oX%oX%oXooX%oooO+$+$+O O O O.o@#@#@#@#@#@#@#@#@#@",
".o.o.o.o.o.o.o.o.o.o.o.o.o@ooooX%ooo+o@oooXooXoXoXoooO+ooXoXoOooOoXoXoooO+OoOXoXoXoooO%oXoooOo.o.o.o.o$+$+$o.o.o@#@$+$+$+$+$+$+$",
"o.o.O O.o.o.o.o.o.o.o.o.o.o@oo%oXooOoOoo+oo%Xo%oo%OoO oo%oX%oX%ooo%oooOoO+oooo%Xo%oOooXO%oooo+O o.o$+$+.o.o.o.O O O o.O O O O O+",
".o.o.o.o.o.o.o$+$@#@#@#@#@#oOooXoO%o@#+O#OooXoXoXoX%oOoOoXooXoOoooOX%oo%ooOo%XoooXo%ooooXO%OoOoOo@#@#@#O O O O O O O.o O.o@#@#@#",
"o.o$+$+$+$+$+$+$+$+$+$+$o.o.ooo%XoooO+$+ooOo%ooX%oooO+oooo%Xoo%XO%ooOooOoOooOoX%X%oXO%oO%ooo%oo+Ooo@#@#@#@#@#@#@#@#@#@$+#@#@#@#@",
".o.o.o.o.o.o.o.o.o.o.o.o@#@ooOoXooXO+O#@o.ooooX%oXoOooO+ooXo%XoooXooX%oXo%ooXooXooXoXooXooXOoXOX%O+Oo@#@#@#@#@#@#@#O+$+$@#@#@#@$",
"o.o.o@#@o.o.o.o.o.o@#@#@#@#O+oo%X%ooo@#@#+OooOooXo%oo@o$oo%XooX%Xo%XooXooXoX%oX%oX%o%oX%oXo%Xo%ooXoo+$+$+$+$+$o.o.o.#@#@#@#O O o",
".o.o.o$+$o.o.o.o.o.$+$@#@#@oOooXooX@oo@#@o$+oooX%Xo+O#+oOoooXooXooXo%Xo%X%XooXooXooXoXooX%XoooXoXoOoO+$+$o.o O O O O+$o.o.o.o.o.",
"o.o.o.o.o.o@#@o$+$o@#@#@#@#@ooo%oXooo@o$+$+OooooooOoo@o.ooooo%Xo%X%oXooXooo%XoX%oX%oX%oXooooX%X%oo%ooO O O O.o.o.o@#.o.o.o.O O O",
".o.o.O O.o.o.o.o.o.o.o.o.o.o OooXo%XOo+$+$+#O+Oooooo@#@#O oOooXoXooXo%Xo%XoXo%OooooXooX%oX%XoXooXooOo@#@o.O+#@$+$+$+O O O O O$+$",
"o.o.o.o.o.O O O O O O#@#@#@oOooo%XoooOo@#O O+ooooO+O#@#@o@o+oo%oo%ooOooOXoo%XooooO%oX%Ooooooo%oX%Xoo+O O O O.o O O O O O O O O O",
".o.o.o.o.o.o.o.o.o.o.o.o.o.o.oOooXo%Xoo@#@#@#Oo@ooo.o.o.o.oOoOoXOoOoo+oo%ooXoooO+ooXoooooo@oOoXooooOo.o.o.o.o$@ O O O O+$+O O+$+",
"o.o.o.o.o.o.O O O O O O+$#@#O+ooo%Xoo%OoO+$+$+o#@o.o.o.o.o$+ooo%ooo+Oo$oooXo%Oo+OooO%oOo+O#ooo%oX%Ooo@#@#@#@#@o$@#@$+$+$+$+$+$+$",
".o.o@#@#@#@#@#@#@#@#@#@#@o.o.o+OoXooXooO+$+$+O Oo.o.o.o$+$+OooXooOoO o@oOo%XoooOoooooooOO+O+OooXooo+$+$+$+$+$+$+$o.o.o.O O O O O",
"o.o.o.o.o.o.o.o.o.o.o.o.o.o.oO#ooo%X%oX%oo@o$+$+$+$+O O Oo@ooO%oo%O+o.ooooXoOoo@ooo%XO+o+#@#ooO%oooO+$o.o.o.o.o.o.o.o.o.o.o.o.o.",
".o.o$+$o.o.o.o.o.o.o.o.o.o.o.o@ooOXooXoOoO+$+$+$+$o.#@#@#+$ooXoXoXOoOO+Ooo%ooo@ooOXoooXoOO+oOooXOo@o.o.o.o.o.o.o.o.o$+$o.o.o.o.o",
"o.o.o.o.o.o$+$+$o.o.o.o.o.o.o.oOoo%oXo%oooO+$+$+$+.oo@oO Oooo%oooooo%ooooXOoo@#Ooo%oXo%Oo%oOoo%oooo.o.o.o.o.o.o.o.o.o.o.o.o.o$+$",
".o.O O+$+O O+$@o.O O.o.o.o.o.o.ooooX%oXoXO%oO O+$+Oo@oo+O+OooOX%X%oOoO%Oo%oooOo+oooX%oXoooOo%oXoO+Oo.o.o.o.O O O+$+$+$+$+$+$+.o@",
"o.o.o.o.o.o.o.o.o.o.o.O O O O O+OooooXo%oooo@o.o.o$+oooOoo.ooooXooXoooooXooo@o OooooXooooOXooooooo.o.o@#@o$+$+$+$+O O O O.o$@#O ",
".o.o.o.o.o.o.o.o.o@#O O O.o.o.o$+oooX%XoXoOoOoO Oo@oOX%oo@o+$+oo%Xo%oOXo%ooOo.o@#@oooX%X%oo%OX%ooO+$+$+$o.+$+$+$+$+$+$+$+$+$+$+$",
"o.o.o.O O.o.o.o.o.o.o@#O O O O O O+OoXooo%Xooo@o+OooooOoOo+$oooOoXoXXo%oXOoo+$o.ooO+ooXooXooXoOo@o.o.o.o.o$+$+$@#@$+$+$+$+$+$+$+",
".o.o.o.o.o.o.o.o.o.o.o.o@#O O O Oooooo%XoXo%Ooo+Oo+oX%ooo@#@o@oooo%o%oXoooo@o.o.o.ooOo%oX%oX%oooo.o$+$+$+$+$+$+$+$+$+O O+$+O O O",
"o.o.o.o.o.o.o$+$+$+.o.o.o.o@$+O O O+ooXoX%oXoXOoOoXOooooO O#@#OooooXoXoX%oOo.o@#@o.ooooXoXooXoO+O O O O O O+$o.o.o.o.o.o.o.o.o.o",
".o.o$+$o.o.o.o.o$+$o.o.o.o.o.o.o.oOooO%oooXo%ooX%oo%Xo+Oo@#@#@o+Ooo%Xo%oOo+$+$+$+$o@ooOo%oX%ooooO O O O O.o.o.o.o.o.o.o.o.o.o.o.",
"o.o.o.o.o.o.o.o.o.o.o.o.o.o.o.o.o.o.ooooX%XooX%oooXoooOo O O O OooooXoXoooO+$o.o.o.o.o+ooXoXoO+O O O.o.o.o.o.o.o$+$o.o.o.o.o.o@#",
".o.o.o.o.o@#@o.o.o.o.o.o.o.o.o.o.o.o@#oooXo%XoXXoXooOoo@#@#@#@#@#O+oo%ooo@o.o.o.o.o.oO#ooo%oooo@#@o.o.o.o.o.o.o.o.o.o.o.o.o.o.o.",
"o.o@#@o.o.o.O O O O O O O O#@#O O O+$oo@oooXooo%oo%ooo@#@#@#@#@#@#oOoooOoo.o.o.o.o.o.o@oooooO+$o.o.o.o.o.o.o.o@#@#@$+$+$+$o.o.o.",
".o.o.o.o.o.o.o.O O O+$+$+$+$+$+$+$+$+O+ooo%X%XXoXoOo+O#@#@#O Oo.o@ooOoo+O O O O+$+O O oOoOo+oO+$+$+$o@#@#@#@#@$+$+$+$o.O O.o.o.o",
"o.o.O O.o.o.o.o.o.O O.o.o.o.o.o.o$+$o.o$oooooo%ooo+oO O+$+$+$+$+O#@#o+O#@#O O O $+$o.O O+ooOo.o.o.o.o.o$+$o.o.o.o.o.o.o@#@#@$+$@",
".o.o.o.o.o.o.o.o.o.o.o.o.o.o.o@#@#@#@#@o.oOoOooooOoO O O O+$+$+$+$+O+$o@#@#@#@#@o.o.o+$+$o.o.o.o.o.o.o.o.o.o.o.o.o@#@#@#@#@#O O#",
"o.o.o.o.o.o.o.o.o$+$o.o@$+O O.o.o@#@$+O#@o oooOoo+$+$+$+$+$+$+$+$+$+$o@#@o.o.o.O O.o.O#@o.o@#@#@#@#@#@#@#@#@#@#@#@#@#@#@#@#@#@#@",
".o.o$+$o.o$+$+$+.o.o.o.o.o.o.o.o.o.o.o.o.oO+$+oO Oo.o.o.o.o.o.o.o.o$+.o.o.O O O O O O O O O O O#@#@#@#@o.o.o.o.o.o.o.o.o.o.o.o.o",
"o.o.o.o.o.o.o$+$o.o.o.o.o.o.o.o.o.o.o.o.o.o.oO+$+O O+$o.o.o.o.o.o.o.o$+$+$+$o.o$+$+$+$+$o.o.o.o.o.o.o.o.o@#@#@#@#@#@#@#@#@#@o.o.",
".o.o.o.o.o.o@#@o.o.o.o.o.o.o.o.o.o.o.o.o.o.o$+.o$+$+$@#@#@#@#@#@$+$+$+$+$+$+$+$+$+$+$+$+$+$o.o.o.O O.o.o.o.o.o$+$+$+$+$o.o.o.o.o",
"o.o.o@#@o.o.o.o.o.o.o.o.o.o.o.o.o.o$+$+$+$+$+$o.+$+$+$+$@#O.o.o$+$+$+$+$+$+$+$+$+$+O O O O O O O+$+$+$@#@#@#@#@#O O O O O O O O#",
".o.o.O O.o.o.O O O.o.o$+$o.o.o.o.o.o@#@#@o.o.o.o$+$+$+$+$+$+$+$+$+$+$+$+$+O O+$+$+$+$+$+$+$+$+$+$+$+$+$o.O O+$+O O O+$+O O.o.o.+",
"o.o.o.o.o.o.o.o.o.o.o.o.o.o$+$+$+$+$+$+$+$o.+$+$+$+$+$+O O O O+$+$+$+$+$+$+$+$+$+$+$+$+O O+$+$+$o.o@#.o.o.o.O O.o.O O.o.o.o.o@#O",
".o.o.o.o.o.o.o.o.o.o.o.o.o.o.o.o.o.o.o.o.o.oO O O O O#@#@#@o.o.o@#@o.o.o.o.o.o.o.o.o.o.o.o.o@#@#@ O#@o.o.o.o.o.o.o.o$+$+$+$+$+$+",
"o.o.o.o.o.o.o.o.o.o.o@$+$@o.o@#O O O O.o.o.o.O O O O @#@#@#.o.o.o.o.O O O O O O O O O O O O.o.o.o$+.o.o.o.o.o.o.o.o.o.o.o.o.O O.",
".o.o$+$o.o.o.o.o@#@#@#@#@#@$+$+$+$+$+$o.O O O O O O O#@#@#@o$+$@#@#@#@#@#@#@#@#@#@#@#@#@$+$+$+$+$+$o.o.o.o.o.o.o.o.o.o.o$+$+$+$+",
"o.o.o.o.o.o@#O O#@#@#@#@#@#@#@$+$@#@#@#@#@#@#@#@O O O O O O @#@#@#O O O.o.O O.o.O O.o.o.o.o.o.o.o.o.o.o.o$+$o.o.o.o.o.o.o.o$+$+$",
".o.o@#@#@#@#@#@#@#@#@#@#@#@#@#@#@#@#@#@o.o.o.o.o.o@#@#@#@#O O#@#@#@#O O#@#@#O O#@o.o.o.o$+$+$o.o.o.o.o.o@#@#@#@o.o.o.o.o.o.o.o$+",
"o.o.o.o.o.o.O O.o.o.o.o.o.o.o.o.o.o$+.o.o.o.o.o.o.o.o.o.o.o.o.o.o.o.o.o.o.o.o.o.o$+$o.o.o.o.o.o@#@#@#@#@#@#@#@#@#@#@#@#@o.o.o.o.",
".o.o.o.o.o.o.o.o.o.o.o.o$+$+$+$+$+$+$o.o.o$+O#@#@#@$+$@#@#@#@#@#@#@#@#@#@o.#@o.o.o.o.o.o.o.o.O O.o@#@#@#@#@#@#@#@$+O O.o.o.o.o.o",
"o.o.O O@#@#@#@#@#@#@#@#@#@#@#@o.o@#@#@#@#@#@#@#@#@#@#@o.O O O+$+$+O O O O O+$ O O O O@#@o.o.o.o.o.O O O O O O.o.o.o.o.o.o.o.o.o.",
".o.o.o.o.o.o.o.o.o$+$+$+.o.o $+$+$+$+$+$@#@#@#@#O O O#@#@#@#@#.o.o.o@#@#@#@#@o.o.o.o.o.o.o.o.o.o.o.o.O O.o.o.o.o.o.o.o.o.o.O O.o",
"o.o.o$+$o.o@#O O O O O#@#@#O@o#@#@#@#@#@o $@#@#@#@#@#@#@#@#@#@o.o.o.o.o.o.o.o.o.o.o.o.o.o.o.o.o.o$+$o@#@#@#@#O O#@#@#@#@#@#@o.o.",
".o.o.o.o.o.o.o@#@o.o.o.o$+O+o+O+$+$+$+$+$@o O @#@#@#@#@#@o.o.o$+$+$+$+$+$+.o.o.o.o.o.o.o.o$+$+$+$+.o.o.o.o.o.o.o.o$+$+$o.o.o.o.o",
"o.o.o.o.o.o.o.o.o.#@o.o.O oOoOoO o.o.o.o.o.O#@#O+$+$+$+$+$ O O+Oo.o.o.o.o$+$+$+$+$+$+$+$+$+$+$+$+$o.o.o.o@#@#@#@#@#@#@#@o.o.o.o.",
".o.o.o.o.o.o.o.o$+Oo.o+$+oOoooo%Oo.o.o.o.o.o.o.o.o.o.o.o.o@oOooO%oO O Oo.+$o.oO O O O O O O O#@#@#@#@#@#@#@#@#@#@#@O O O O O O O",
"o.o.o.o.o.o.o.o.+O+oO+$o+Ooo%OXOo@o.o.o.o.o.o.o.O O O O O#.o@ooooO+$o.o.Ooo@o@#@#@#@#@#@$+$+$+$+$+$+$+$o.o.o@#@#@#@#@#@#@#@#@#@ ",
".o.o.o.o.o.o.o.oOooOooO+$+ooXoooooO+$o.o.o.o.o.o.o.O#@#@#@oooo%Oooo@#+$+#+Oooo@o O#@#O O O O O O O O O O O O O O O O O O O#@#@#O",
"o.o.o.o.o@#@#@#o@ooo%O+$oOoo%oX%OoO+O @#@#@#@#@#@#@o.o.o@#@oOoXooo@o.O OoOooOoO+$+$+$+O O+$+O O O O O O O O O O+$ O O#@#@#@#O O ",
".o@#@o@o@oo@o.o@oooXoooO+ooXoXooooooO+#O O O+$+$+$+$+$+$+$+oo%oXoOo+$+#@ooo%oooO+O O O O O O O+$+$+$+$+$+$o.+$o.o@#@#@#@#@#@#@#@",
"o.#@#oOoooOooO+OoO%oXo@o+Oo%oXo%X%Oo@oO+.o.o.o.o.o.o.o.o.oOoooXo%oOo.o@o+OXoX@ooO O O O O O.o.o.O#@#@o.o.o@#O @#@#@#@#@#@#@o.o.o",
".o@oo@ooOo%OooooooXo%oOo$oooX%oXoooXoo@oO#@#@#@#@#@#@#@#O oOoX%oOoo@#@#Ooo%ooX%oO+$+$+$+$o.+$@#@#@#@#.oO+O+O O#@#@#@#@o.o.o.o.o.",
"o.OoOoX%Xooo%OoOo%XoXooo@oooooXo%Xo%Oooo+O+$+$+$+$+$+$+$+O+oooXooo@o.o$+ooXoXooOo+O O O O O#@#@#@#@o.o+Ooooo@o.o.o.o.o.o$+$+$+O#",
".o#+oooooX%XooooXoo%OooO+ooOoX%XXoXooX@oO+oO o@#@#@#@#@#@#Ooo%XoooOo.o+Ooo%X%oXooO+$o.o.o.o.o$+$+$+$o@ooooOo@#+$+$+$@oO+O+$+$+$+",
"o+Ooo%XXooooXo%X%oXoX%Ooo.o+ooXoo%oX%oXoXOoOoO O#@#@#@#@#O+ooXo%oOo+$+$oOoXooX%oOo@o.o.o.o.o.o.o.o.o.oOooX%ooO O O O#+oooOo@#@#@",
".O+OXoo%oX%XooXooX%ooooo@oOooo%oXoXoXoo%oo%ooOo.o.o@#@#@#@ooO%oXoo+O O+ooo%oXooX+oo.o.o.o.o.o.o.o.o.o@ooOooXO+O#@#@o+OoO%o+$+$o.",
"ooooo%XoXoXo%X%XooXoXo%Oo.o@oOoXo%Xo%XoXooXO%ooO+$o.o@#O+oOoooXoOoOo.o$ooooXo%XoXoOo+$+$+$+$+O O Oo.oooo%Xo%oO+O O oOoXoXOoO O O",
"#@ooXooX@o%XoXooX%oX%oOoo@#oooo%XooXoX%oX%oooO%oo.o.o.o.o.ooo%Xo%oo@#@+O+ooX%Xo%oO%o@o@o@#@#@#@#@#@ O+oXooXoOoo.o.o.oo%oooo@o.o.",
"@ooO%XooooOo%oX%XoXooXoo@o$+OoooXoX%XooXoXoX%ooo@o.o.o.o.o@oooXoX@oO O#oOooXooXoXoooOoOo@oo@o+O+#@#OoOoo%X%ooo@o+$OooooX%oOo.o.o",
"oOooXo%ooOooooXooX%oX%oOoo@#+Oooo%ooX%XoX%oXoXOoo@#@#@#@#Ooooo%oooo@o.o.ooo%oX%X%oXOooo+oo@ooOoO+O O oOooXoXooOo.o+oOo%Xooo@o.o.",
".oo%XoXOo+#oOoo%XooXoXooO+$+OoooXoXXoo%XooX%ooX+Oo.o.o.o.o@oOXoXoo@o.o.o#@ooXooooX%oo%OXOoXoOoooO+O o@ooXoo%Ooo@#.o@ooXoOooO o.o",
"ooooo%oo+Oo@ooooX%X%ooo%ooO O Oo%oo%oOX%oXooX%ooo@o.o.o.o.ooo%o%XOoo@#@o@oooO%XoXooXoXooo%Oooo%OooO Oooo%oXoX%oO+Ooooo%Xo%oO+$+$",
"@oOXooXoOo@#+$+OoooXoXoOoO+#@ooooXoXoXooX%oXoXOoOoOo@#@o.ooOoXoXooo@o.o.#O ooXooo%Xo%oXoXoX%oXoooO+O#@oooX%XooOoo.oOoXooXoO+$+$+",
"ooo%oXoO%o$+OoooooX%Xo%ooo@o.o.oo%X%oo%ooXo%Xooo%o+o@#O O+Ooo%Xo%ooO O Oo@oOoo%XoXoXoX%o%oXoX%oX+oo.o+OooooooX%oO+O+oooX%oooO+$+",
" OooX%oooO+O O O+ooXoXoXoOo.oOoooXooXoOX%XoXo%oXOXoOo+$+$ooooXoXOXo+Oo.o.o.o+ooXooX%oXoXoX%ooXoOoO+$+$ooo%X%XooOooooo%XooXoO+$+$",
"OoooooX+Ooo.o.oooOo%ooo%oo@o.o.oOooXoo%ooo%XooX+ooooo@o O+Oo%Xo%ooOoO O O Oo#Ooo%XooX%oX%XoXoX%ooo.o.o+OoooXo%Xo%OoOoX%Xo%Ooo@#@",
"+oooXooXoo@o$+$+$oooX%XOoo$+$+o+o%X%oXooXoXo%XoXX%XO+O#@oooooXooX%oo+O O o.o@ooXoX%XooXooooX%ooo@oO Oo.oooX%oXooOo%oooooXoooO O#",
"#O+O%oX%oOo@o.oO+ooooooo+O+$+$oOoXooX%oX%oXoXoo%ooooo.o@oOooX%oXooOoO#@#@$+$o+oo%oooXo%oX%XoXoOoo.o.o.oOooooX%oX+oXOoX%Xoo%Oo+O ",
"@ooooXoXoooo.o.o.o@oooooOo.o.o.ooo%XooXoX%o%X%XoXoO+Oo Ooo%oXoX%oX%o+O O o@#@ooOXoXo%ooXoXo%oooo@#@#@#@#@oOXooXoXoo%XoXo%XoooO.o",
"o.ooooo%oO%O+$+$+O#oOoo@#+$+$+O+ooXooX%ooXoXooXoo%ooO OooooX%oXoXooOoO O O $+Ooo%OoOoOoX%XoXo+Oo.o.o.o.oo+o%oX%o%XoXo%oXoXoXO+#@",
"O Ooo%XoXoooO+$o.o+Oo+O#@o.o.o$ooOo%XoXoX%Xo%Xo%XoOo @o@ooXooXo%oX%Xo@o.o.o@ooooXo%ooX%ooo%oOoo@#@o.o@#O+$ooXoXoXo%oXoX%oo%ooo@o",
" OoOoooXo%XO+o.o.o$+o$+o.o.o@#+OooXoX%oX%ooXoXoXooo@o$ooO%X%X%XoXoooOo+O$+$o.o+ooooOoooX%Xoooo@#O O O O Ooooo%oX%XoX%OoXoXoX%Oo.",
"O @oOoX%oXoooO+$+$+$o@#@$+$+$+O+oo%oXoXoXoX%oo%oOoOo.o@oXooXoooX%oX%ooO o.o.oOoOo%Xo%XoXoooOo.o@o+Oo.o.o.o@oOoXoooooooo%X%ooooO+",
" O#o+oooXoo%Oo@o.o@#@#@#o.O#@#@#oooX%oX%oOoooXoX%oo@oooo%oX%oX%XoXoooo@o.o.o.ooooOooXoo%Oooo.o+oOoO+o@#@#@#ooo%oX%ooOooooXoX@ooO",
"O O+OooX%oXoXooO O O O O.o O OoOoO%XoXoooo+Oo%ooooOo@ooooXooXoXoo%XoOooO O O O+Ooo%Xo%XoooO+OoOoooooO+$+$oo@ooooOooo+O+OoX%oXoo@",
" O OoooooX%oo%Ooo.o.o.o.o+O+o$+oooXoO%oooOooOooX%o+OooOX%oX%oo%XoXo%XoO+$+$+Ooo+oXooXoOoo@#@#@oO%oOo+Oo O+.OoOooooO+$ooooooXo%Oo",
"O O O+OoX%oXoXo%Oo@#@#@#+OoO+o@o@oooXoo@oo.oooooOXOooo%oXoooooOo%oXoo%Oo@o.o.oOoX%oX%oo%oOo@oooooXoXOo@$+$oo+oOo+O Oo+Ooo%XoXoX+",
" O O#o+ooXoXo%oOoo@o.o@oOooooOoooo%X%XOoo.oO+oXoooo%oOXooooOooooOX%oXoooo.o.o@ooooXoXooOoO%ooO%oX%o%oooo@o+OoO%oOoo.o.oOoXoo%ooO",
"O O+$+Ooooo%oXoooOo@#O ooOX%Oo+OooXooooo@o@oOo%oX%OooX%ooO+#@o.ooooX%oOoO+OooooX%X%ooOooooooOoooXoXoXO%OooOooXooOo@o@oo+oo%XoXoo",
" O O OooO%XoXoX%ooooO+oOo%ooooO Ooo%Xo%O#@#ooooXooXoooooOoo@#Oo+ooXooXo%oOo+OoooXooX%ooOooOoX%Xo%Xoo%XoooOooo%oO%ooOo@oOoooXo%oo",
"O O Oo.ooooXo%oXooO%oOoooXoooO+ooooXooOo+$o@ooX%oX%oX%oo+O O O Ooo%oX%ooO+oOoX%Xo%XooX%X%oX%oooXoooXoooO%oo%XoXoooOoooOo%OX%oXoo",
" O O O Oooo%XoXo%XooO%oO%oX@oo@$+Oo%oooo@#+OooooXooXoOooO O O O+oOoXooXoXoOo%ooooXoX%oXooXooXoX%X%X%XoXooOXooXo%Xo%oO%oooXooX%Oo",
"O O O O+$ooooX%oXoXooXooXoooo@#oooooOo@o$+O+oO%X%oX%ooo@o.o.o.o$oooo%Xo%oo%oXOX%Xo%XoX%oX%oX%oXooXoXo%o%oo%oX%oXoXoXoXooXo%XooXo",
" O O Oo.o@oOoooXo%o%XooX%ooOo.o@#@ooooo@#@#OooXooXoX+Oo$+$+$+O O+OooXoOXoXoooooXooXooooXooXooXo%Xo%oXoXOooooXoXo%oXoo%oX%oXoXooo",
"O O O O O#oooOX%oXoXo%XooOo+O O OoooO O O O ooo%Xo%ooo+O O+$o.o.o+ooo%Xoo%OoX%X%X%X%XooX%Xo%X%oXoXoX%ooooOoOo%oXoX%oXoXooXoo%oo@",
" O O O O O+O+oooXoX%oX%ooo+O#@#O+#O+oO Oo.+O#OooXoXoO+$+$o.o.o.oOoOoooX%Xoo+ooooOoooooooooooOoooo%ooooo@o+ooooX%XooX%oX%X%oXoOoo",
"O O O O O+$ooooo%oXoXooo+Oo.o@#@#@oO O O O#@o+ooX%oooOo.o.o.o.o.o.o+ooooooOoOoooooooOoO+OoOooooOooooooO#o@#@oOooo%XoOXooXoX%ooo@",
" O O O O O O+OoooO%ooOooO#@#@#@#@#@#@#@#@#@#oOooOooO+o.o.o.o.o.o.ooOoooo@ooo+ooO oOo+oooo+#o+O#+oOooOo+O+$oo oooooooX%oX%ooOoo@#",
"O O O O O O O#@oooooo+o$+o.o.o.o.o.o.o.o.o.o@o+oooooO O O O O O O O+#Oooo#@o$o@ooO+o$+Oo.oO+$o@o$+oO+o$+$+$+Oo.o@oo+oooOooooo@#@",
" O OO O O O O+#OoooOooO+$+$+$+$+$+$+$+$+$+$+$oOo+oO#@o.o.o.o.o.o.o.oO+oOo@o.o.o.o.o.o.o.o.o.o.o.o.o.o.o.o.o.o.oooO#ooooooooo$+O#",
"O O O O O O O O O+Oo+$+$+$+$+$+$+$+$+$+$+$+$+$+oOo+O O O O O O O O O o.o.o.o.o.o.o.o.o.o.o.o.o.o.o.o.o.o.o.o.o.o.o@o$+O+$oO+O O ",
" O O O O O O O O O#@#@#@#@#@#@#@#@#@#@#@#@#@#@#@o.o.o.o.o.o.o.o.o.o.o.o.o.o.o.o.o.o.o.o.o.o.o.o.o.o.o.o.o.o.o.o.o.o.o@#o@o.o.o.O",
"O O O O O O O O O @#@#@#@#@#@#@#@#@#@#@#@#@#@#@#o.o.o.o.o.o.o.o.o.o.o.o.o.o.o.o.o.o.o.o.o.o.o.o.o.o.o.o.o.o.o.o.o.o.o.o.o O O O ",
" O O OO OO OO OO Oo.Oo.Oo.Oo.Oo.Oo.Oo.Oo.Oo.oO.o@$o@#O.o@$o@$o@$o@$o@$o@#O.o@$o@$o@$o@$o@$o@$o@$o@$o@$o@$o@$o@$o@$o@#O.o@$o@#O O",
"O O O O O O O O O O O O O O O O O O O O O O O O O O O O O O O O O O O O O O O O O O O O O O O O O O O O O O O O O O O O O O O O ",
" O O O O O O O O O O O O O O O O O O O O O O O O O O O O O O O O O O O O O O O O O O O O O O O O O O O O O O O O O O O O O O O O",
"O O O O O O O O O O O O O O O O O O O O O O O O O O O O O O O O O O O O O O O O O O O O O O O O O O O O O O O O O O O O O O O O ",
" O O O O O O O O O O O O O O O O O O O O O O O O O O O O O O O O O O O O O O O O O O O O O O O O O O O O O O O O O O O O O O O O",
"O O O O O O O O O O O O O O O O O O O O O O O O O O O O O O O O O O O O O O O O O O O O O O O O O O O O O O O O O O O O O O O O ",
" O O O O O O O O O O O O O O O O O O O O O O O O O O O O O O O O O O O O O O O O O O O O O O O O O O O O O O O O O O O O O O O O",
"O O O O O O O O O O O O O O O O O O O O O O O O O O O O O O O O O O O O O O O O O O O O O O O O O O O O O O O O O O O O O O O O "
};
